# xmcd
#
# Track frame offsets:
#	150
#	17006
#	31923
#	47572
#	64954
#	79840
#	95328
#	109228
#	124256
#	137745
#	151341
#	164224
#	177079
#	194273
#	210105
#	224276
#	238766
#	261810
#
# Disc length: 3672 seconds
#
# Revision: 1
# Processed by: cddbd v1.5.2PL0 Copyright (c) Steve Scherf et al.
# Submitted via: audiograbber 1.82.02
#
DISCID=fa0e5612
DTITLE=Various Artist - Country Radio - April 2019
DYEAR=2019
DGENRE=Country
TTITLE0=Tim McGraw - Thought About You
TTITLE1=Lockeland - Til' The Cows Come Home (Radio Edit)
TTITLE2=Alexis Ebert - Ride Or Die
TTITLE3=Junior Gordon - Loved 'Em Every One
TTITLE4=Cassadee Pope - If My Heart Had A Heart
TTITLE5=Zac Brown Band - Someone I Used To Know
TTITLE6=David Lee Murphy - No Zip Code
TTITLE7=Bailey James - Devil Won't Take Me Down
TTITLE8=Stephanie Quayle - If I Was A Cowboy
TTITLE9=Brecken Miles - Liar Out Of Me
TTITLE10=Hunter Hayes - Heartbreak (Clean Edit)
TTITLE11=Filmore - Slower
TTITLE12=Micheal Zaib - Broken Hearts Should Be A Crime
TTITLE13=Kacey Musgraves - Rainbow
TTITLE14=Brooks and Dunn (Ft. Luke Combs) - Brand New Man
TTITLE15=George Strait - Every Little Honky Tonk Bar
TTITLE16=Brooks and Dunn (Ft. Kane Brown) - Believe
TTITLE17=Jason Aldean - Rearview Town
EXTD=
EXTT0=
EXTT1=
EXTT2=
EXTT3=
EXTT4=
EXTT5=
EXTT6=
EXTT7=
EXTT8=
EXTT9=
EXTT10=
EXTT11=
EXTT12=
EXTT13=
EXTT14=
EXTT15=
EXTT16=
EXTT17=
PLAYORDER=
